<?xml version="1.0" encoding="UTF-8"?>
<svg id="Capa_2" data-name="Capa 2" xmlns="http://www.w3.org/2000/svg" viewBox="0 0 200 200">
  <defs>
    <style>
      .cls-1 {
        fill: #ff7b00;
      }

      .cls-2 {
        fill: #fff;
      }

      .cls-3 {
        fill: #00bbf9;
      }

      .cls-4 {
        fill: #9b5de5;
      }

      .cls-5 {
        fill: #fee440;
      }
    </style>
  </defs>
  <g id="Capa_1-2" data-name="Capa 1">
    <g>
      <path class="cls-4" d="m100,100H0V24.76C0,11.09,11.09,0,24.76,0h75.24v100Z"/>
      <path class="cls-3" d="m200,100h-100V0h75.24c13.67,0,24.76,11.09,24.76,24.76v75.24Z"/>
      <path class="cls-5" d="m100,200H24.76c-13.67,0-24.76-11.09-24.76-24.76v-75.24h100v100Z"/>
      <path class="cls-1" d="m175.24,200h-75.24v-100h100v75.24c0,13.67-11.09,24.76-24.76,24.76Z"/>
      <path class="cls-2" d="m72.67,56H27.33c-3.31,0-6-2.69-6-6s2.69-6,6-6h45.34c3.31,0,6,2.69,6,6s-2.69,6-6,6Z"/>
      <path class="cls-2" d="m50,78.67c-3.31,0-6-2.69-6-6V27.33c0-3.31,2.69-6,6-6s6,2.69,6,6v45.34c0,3.31-2.69,6-6,6Z"/>
      <path d="m66.03,172.03c-1.54,0-3.07-.59-4.24-1.76l-32.06-32.06c-2.34-2.34-2.34-6.14,0-8.49,2.34-2.34,6.14-2.34,8.48,0l32.06,32.06c2.34,2.34,2.34,6.14,0,8.49-1.17,1.17-2.71,1.76-4.24,1.76Z"/>
      <path d="m33.97,172.03c-1.54,0-3.07-.59-4.24-1.76-2.34-2.34-2.34-6.14,0-8.49l32.06-32.06c2.34-2.34,6.14-2.34,8.49,0,2.34,2.34,2.34,6.14,0,8.49l-32.06,32.06c-1.17,1.17-2.71,1.76-4.24,1.76Z"/>
      <path class="cls-2" d="m172.67,56h-45.34c-3.31,0-6-2.69-6-6s2.69-6,6-6h45.34c3.31,0,6,2.69,6,6s-2.69,6-6,6Z"/>
      <g>
        <path class="cls-2" d="m172.67,143.92h-45.34c-3.31,0-6-2.69-6-6s2.69-6,6-6h45.34c3.31,0,6,2.69,6,6s-2.69,6-6,6Z"/>
        <path class="cls-2" d="m172.67,168.08h-45.34c-3.31,0-6-2.69-6-6s2.69-6,6-6h45.34c3.31,0,6,2.69,6,6s-2.69,6-6,6Z"/>
      </g>
    </g>
  </g>
</svg>